<svg width="280" height="265" viewBox="0 0 280 265" fill="none" xmlns="http://www.w3.org/2000/svg">
<g clip-path="url(#clip0)">
<rect width="1920" height="8133" transform="translate(-824 -2167)" fill="white"/>
<g filter="url(#filter0_d)">
<rect x="-94" y="-51.0005" width="460" height="575" rx="10" fill="white"/>
</g>
<path d="M101.802 251.258C86.6549 256.625 71.3612 259.104 55.0481 256.005C36.8654 252.549 21.0944 236.989 12.1832 221.471C8.8722 215.707 6.23628 209.267 6.58073 202.63C7.38215 187.298 21.8665 185.585 34.1614 188.065C41.0921 189.459 47.4559 192.634 53.7475 195.778C64.193 201.001 76.4458 203.57 85.8105 210.81C88.9529 213.246 91.3128 216.174 94.9642 217.946C100.644 220.706 107.128 222.009 112.962 224.52C117.943 226.675 123.511 230.22 123.518 235.645C123.519 241.208 117.714 244.754 112.614 246.969C109.004 248.547 105.41 249.986 101.802 251.258Z" fill="url(#paint0_linear)"/>
<path d="M46.0501 53.4956C70.8631 16.9285 122.172 2.24616 163.761 15.9946C183.816 22.6276 200.623 36.4394 216.125 50.7773C229.789 63.4143 243.045 77.0443 252.377 93.2898C258.749 104.379 263.309 117.671 266.529 130.081C271.344 148.661 266.971 172.602 242.952 170.848C237.317 170.437 232.442 168.411 227.171 166.638C222.908 165.201 218.73 166.063 214.304 165.361C203.162 163.597 192.429 159.495 182.28 154.69C161.596 144.89 142.697 131.575 121.425 122.987C103.993 115.958 85.3767 112.329 66.5808 112.296C58.6512 112.283 50.3135 112.838 43.2203 109.292C25.7374 100.545 33.5993 76.9585 40.1286 63.6903C41.8584 60.1561 43.8372 56.7492 46.0501 53.4956V53.4956Z" fill="url(#paint1_linear)"/>
<path d="M240.597 59.015C244.682 62.7149 260.732 72.8153 261.041 60.9624C261.114 58.0096 259.775 55.1425 257.952 52.98C255.867 50.4979 253.502 49.196 251.874 46.3042C249.881 42.8126 247.613 39.5311 245.099 36.502C239.959 30.1974 233.958 24.3722 226.676 21.7767C221.569 19.9585 212.922 20.4157 210.496 26.9612C206.962 36.4895 222.074 38.2354 226.683 41.7079C231.057 44.9947 233.534 50.6423 236.999 55.1307C238.094 56.546 239.298 57.8463 240.597 59.015V59.015Z" fill="url(#paint2_linear)"/>
<path d="M165.059 47.4252C173.712 52.5195 180.202 60.1448 188.091 66.286C201.225 76.5089 219.228 78.6003 234.29 85.7096C249.648 92.9632 261.245 104.236 266.488 120.483C273.262 141.455 273.906 166.395 268.151 187.955C261.813 211.687 246.929 227.451 225.168 237.964C203.419 248.471 179.326 253.374 155.296 254.386C152.977 254.485 150.662 254.539 148.338 254.554C96.1352 254.857 26.6502 236.482 8.87734 180.404C8.71442 179.891 8.5583 179.379 8.40172 178.859C6.57037 172.611 5.49359 166.167 5.19436 159.663C4.07648 136.606 8.11185 111.157 16.1954 89.5428C21.6323 74.991 33.3397 62.6869 45.6763 53.9199C63.009 41.6034 84.1575 38.4602 105.206 36.9824C120.793 35.8888 138.323 35.4892 153.063 41.4512C157.205 43.14 161.215 45.1369 165.059 47.4252Z" fill="url(#paint3_linear)"/>
<path d="M67.3902 82.7599C67.3902 82.7599 120.466 153.627 133.743 159.487C147.024 165.35 163.672 164.03 165.128 170.828C166.584 177.63 137.255 166.125 141.934 176.617C146.612 187.113 164.846 199.093 164.932 209.659C165.021 220.229 135.917 186.972 135.917 186.972C135.917 186.972 163.339 217.399 154.259 218.118C145.175 218.838 121.688 189.09 121.688 189.09C121.688 189.09 147.961 228.114 139.251 224.549C130.546 220.985 49.8046 127.617 37.3535 117.737C24.9025 107.861 67.3902 82.7599 67.3902 82.7599Z" fill="#E27B5A"/>
<path d="M221.787 99.9623C221.787 99.9623 161.251 164.554 147.407 168.919C133.563 173.281 117.163 170.139 114.966 176.734C112.773 183.331 143.187 175.128 137.382 185.045C131.581 194.958 112.143 204.857 110.894 215.353C109.65 225.845 142.228 195.997 142.228 195.997C142.228 195.997 111.628 223.219 120.574 224.933C129.525 226.65 156.138 199.669 156.138 199.669C156.138 199.669 125.735 235.566 134.781 232.981C143.828 230.396 234.338 146.485 247.797 138.036C261.259 129.588 221.787 99.9623 221.787 99.9623Z" fill="#FFCEB0"/>
<path d="M170.25 144.812C170.25 144.812 188.869 180.069 205.985 183.82C223.099 187.571 260.071 154.104 268.138 137.527C276.208 120.953 236.877 70.7967 228.46 63.5826C216.301 62.0982 161.618 113.385 170.25 144.812Z" fill="#FB4C47"/>
<path d="M54.721 48.5534C54.721 48.5534 115.959 108.906 113.057 124.577C110.159 140.251 86.7756 159.026 67.917 165.174C49.0585 171.32 7.82979 146.563 7.82979 128.51C4.82341 97.8497 20.4547 65.9875 54.721 48.5534Z" fill="#128E5A"/>
</g>
<defs>
<filter id="filter0_d" x="-174" y="-126" width="620" height="735" filterUnits="userSpaceOnUse" color-interpolation-filters="sRGB">
<feFlood flood-opacity="0" result="BackgroundImageFix"/>
<feColorMatrix in="SourceAlpha" type="matrix" values="0 0 0 0 0 0 0 0 0 0 0 0 0 0 0 0 0 0 127 0"/>
<feOffset dy="5"/>
<feGaussianBlur stdDeviation="40"/>
<feColorMatrix type="matrix" values="0 0 0 0 0 0 0 0 0 0 0 0 0 0 0 0 0 0 0.08 0"/>
<feBlend mode="normal" in2="BackgroundImageFix" result="effect1_dropShadow"/>
<feBlend mode="normal" in="SourceGraphic" in2="effect1_dropShadow" result="shape"/>
</filter>
<linearGradient id="paint0_linear" x1="5.2362" y1="204.746" x2="20.9514" y2="259.313" gradientUnits="userSpaceOnUse">
<stop stop-color="#FFD0D0"/>
<stop offset="1" stop-color="#FFF8F8"/>
</linearGradient>
<linearGradient id="paint1_linear" x1="298.772" y1="58.8221" x2="122.881" y2="18.2066" gradientUnits="userSpaceOnUse">
<stop stop-color="#FFF8F8"/>
<stop offset="1" stop-color="#FFD0D0"/>
</linearGradient>
<linearGradient id="paint2_linear" x1="261.458" y1="60.7546" x2="201.112" y2="34.9798" gradientUnits="userSpaceOnUse">
<stop stop-color="#FFD0D0"/>
<stop offset="1" stop-color="#FFF7F7"/>
</linearGradient>
<linearGradient id="paint3_linear" x1="247.838" y1="230.726" x2="5.24391" y2="90.2405" gradientUnits="userSpaceOnUse">
<stop stop-color="#FFCFCF"/>
<stop offset="1" stop-color="#FFF8F8"/>
</linearGradient>
<clipPath id="clip0">
<rect width="1920" height="8133" fill="white" transform="translate(-824 -2167)"/>
</clipPath>
</defs>
</svg>
