<svg width="695" height="654" viewBox="0 0 695 654" fill="none" xmlns="http://www.w3.org/2000/svg">
<g clip-path="url(#clip0)">
<rect width="1920" height="8133" transform="translate(-141 -1057)" fill="white"/>
<rect x="-141" y="-1055" width="1920" height="1080" fill="url(#paint0_linear)"/>
<g opacity="0.62">
<path d="M273.319 620.925C235.696 637.086 197.219 645.929 155.225 640.756C108.418 634.986 65.734 598.038 40.4997 560.06C31.1241 545.954 23.3527 530.015 23.127 513.082C22.62 473.965 59.1652 467.204 90.8395 471.469C108.694 473.865 125.402 480.88 141.922 487.83C169.349 499.378 200.931 503.876 225.944 520.731C234.339 526.405 240.825 533.456 250.404 537.358C265.305 543.431 282.007 545.668 297.258 551.086C310.281 555.739 325.027 563.828 325.946 577.621C326.871 591.767 312.701 601.746 300.1 608.224C291.183 612.836 282.283 617.091 273.319 620.925Z" fill="url(#paint1_linear)"/>
<path d="M98.7228 127.325C155.746 30.2262 283.773 -15.6233 391.805 12.4321C443.899 25.9694 488.928 58.2993 530.724 92.1836C567.566 122.048 603.536 154.505 629.96 194.264C648.002 221.402 661.804 254.444 672.052 285.464C687.378 331.91 680.234 393.512 618.87 393.038C604.472 392.929 591.739 388.585 578.043 384.952C566.964 382.005 556.484 384.89 545.113 383.84C516.49 381.203 488.519 372.555 461.914 362.023C407.694 340.536 357.428 309.817 301.915 291.511C256.423 276.532 208.485 270.395 160.686 273.429C140.521 274.713 119.413 277.508 100.789 269.669C54.8826 250.33 70.9583 189.051 85.3582 154.23C89.1701 144.956 93.6362 135.965 98.7228 127.325V127.325Z" fill="url(#paint2_linear)"/>
<path d="M594.327 109.067C605.328 117.797 647.815 140.815 646.633 110.625C646.328 103.105 642.447 96.0369 637.453 90.8409C631.739 84.8758 625.511 81.9576 620.891 74.875C615.245 66.3276 608.933 58.36 602.036 51.0753C587.921 35.8975 571.694 22.0816 552.749 16.6907C539.461 12.9151 517.55 15.513 512.468 32.5589C505.063 57.3735 543.779 59.3045 556.074 67.369C567.741 75.0005 574.977 88.9497 584.533 99.7874C587.551 103.204 590.83 106.311 594.327 109.067V109.067Z" fill="url(#paint3_linear)"/>
<path d="M400.326 92.1365C423.172 103.654 440.942 121.966 462.021 136.271C497.114 160.085 543.237 162.415 582.715 177.992C622.97 193.887 654.329 220.626 670.358 261.068C691.063 313.268 696.839 376.576 685.785 432.353C673.608 493.749 638.38 536.304 584.791 566.648C531.234 596.974 470.785 613.44 409.853 620.001C403.973 620.639 398.095 621.16 392.188 621.583C259.502 631.019 79.7705 595.83 25.2711 456.187C24.7718 454.911 24.2898 453.634 23.8054 452.339C18.1117 436.757 14.3041 420.549 12.4638 404.061C5.79433 345.62 11.8311 280.24 28.7976 223.938C40.2068 186.035 67.9334 152.806 97.8466 128.466C139.875 94.2717 193.128 82.769 246.404 75.5178C285.855 70.1499 330.363 66.2242 368.831 78.9374C379.644 82.544 390.172 86.9561 400.326 92.1365Z" fill="url(#paint4_linear)"/>
</g>
<path d="M326.175 305.624C327.776 309.434 332.162 311.225 335.972 309.624L351.662 303.032C359.649 299.676 368.309 298.192 376.952 298.793C379.529 298.973 382.197 298.485 384.706 297.228C391.353 293.898 394.561 286.005 392.123 278.981C389.262 270.735 380.098 266.735 372.177 270.063C370.032 270.964 368.206 272.307 366.763 273.942C360.971 280.503 353.931 285.846 345.862 289.236L330.175 295.827C326.365 297.427 324.574 301.814 326.175 305.624Z" fill="#FB4C47"/>
<path d="M251.515 389.692C248.352 388.4 244.741 389.918 243.449 393.081L238.13 406.108C235.423 412.739 231.228 418.669 225.824 423.37C224.212 424.772 222.938 426.617 222.206 428.818C220.267 434.651 223.005 441.141 228.537 443.822C235.031 446.97 242.726 443.951 245.411 437.375C246.139 435.594 246.42 433.742 246.309 431.943C245.859 424.721 246.852 417.482 249.587 410.783L254.905 397.759C256.196 394.595 254.678 390.983 251.515 389.692V389.692Z" fill="#C63F3B"/>
<path d="M299.488 272.205C302.798 273.556 306.577 271.969 307.929 268.658L313.494 255.027C316.328 248.088 320.717 241.882 326.372 236.963C328.058 235.496 329.392 233.566 330.158 231.262C332.187 225.158 329.321 218.367 323.533 215.561C316.738 212.267 308.684 215.427 305.875 222.308C305.114 224.172 304.819 226.11 304.936 227.993C305.406 235.55 304.368 243.125 301.506 250.135L295.941 263.764C294.59 267.074 296.178 270.853 299.488 272.205V272.205Z" fill="#C63F3B"/>
<path d="M297.948 374.774C294.138 376.374 292.346 380.761 293.947 384.571L300.539 400.261C303.895 408.248 305.38 416.908 304.778 425.551C304.599 428.127 305.087 430.796 306.343 433.304C309.674 439.952 317.566 443.16 324.59 440.722C332.837 437.86 336.836 428.697 333.509 420.776C332.607 418.63 331.264 416.805 329.629 415.362C323.068 409.57 317.726 402.53 314.336 394.461L307.745 378.774C306.144 374.964 301.758 373.173 297.948 374.774V374.774Z" fill="#FB4C47"/>
<path d="M329.627 415.363C323.066 409.57 317.723 402.531 314.333 394.462L307.742 378.774C306.141 374.964 301.755 373.173 297.944 374.774C294.134 376.375 292.343 380.761 293.944 384.571L300.535 400.259C303.926 408.328 309.268 415.367 315.829 421.16C317.464 422.603 318.807 424.428 319.708 426.574C321.852 431.677 320.951 437.293 317.837 441.41C320.059 441.698 322.367 441.494 324.588 440.723C332.834 437.861 336.834 428.697 333.506 420.777C332.605 418.631 331.262 416.806 329.627 415.363V415.363Z" fill="#C63F3B"/>
<path d="M214.029 319.224C226.476 313.994 232.326 299.665 227.097 287.219C221.867 274.772 207.538 268.922 195.092 274.151C182.645 279.381 176.795 293.71 182.024 306.156C187.254 318.603 201.583 324.453 214.029 319.224Z" fill="#FF8F8C"/>
<path d="M195.097 274.15C192.69 275.162 190.533 276.516 188.652 278.129C198.947 277.232 209.086 282.976 213.304 293.015C217.522 303.055 214.528 314.316 206.682 321.042C209.15 320.827 211.627 320.234 214.034 319.223C226.481 313.994 232.331 299.665 227.102 287.218C221.872 274.771 207.543 268.921 195.097 274.15V274.15Z" fill="#FB4C47"/>
<path d="M308.405 399.669C349.046 382.593 368.149 335.805 351.074 295.165C333.999 254.524 287.211 235.421 246.57 252.496C205.929 269.571 186.826 316.359 203.901 357C220.977 397.641 267.765 416.744 308.405 399.669Z" fill="#FB4C47"/>
<path d="M246.57 252.495C244.244 253.473 241.991 254.552 239.808 255.718C278.675 243.481 321.18 262.647 337.277 300.961C353.375 339.274 337.315 383.047 301.371 402.242C303.731 401.499 306.079 400.645 308.406 399.668C349.047 382.592 368.15 335.805 351.075 295.164C334 254.523 287.211 235.42 246.57 252.495V252.495Z" fill="#C63F3B"/>
<path d="M300.796 304.281C309.051 300.813 312.932 291.309 309.463 283.054C305.995 274.798 296.491 270.918 288.236 274.387C279.98 277.855 276.1 287.359 279.569 295.614C283.037 303.869 292.541 307.75 300.796 304.281Z" fill="#C63F3B"/>
<path d="M288.234 274.387C285.745 275.433 283.657 277.03 282.045 278.974C287.874 279.458 293.242 283.085 295.664 288.851C298.087 294.617 296.921 300.989 293.186 305.492C295.703 305.701 298.305 305.327 300.795 304.281C309.05 300.813 312.93 291.309 309.462 283.054C305.993 274.799 296.49 270.918 288.234 274.387V274.387Z" fill="white"/>
<path d="M267.514 375.999C273.103 373.651 275.729 367.217 273.381 361.629C271.033 356.041 264.6 353.414 259.012 355.762C253.423 358.11 250.797 364.543 253.145 370.132C255.493 375.72 261.926 378.347 267.514 375.999Z" fill="white"/>
<path d="M356.278 373.422C363.898 370.22 367.48 361.447 364.278 353.827C361.076 346.207 352.304 342.625 344.683 345.826C337.063 349.028 333.481 357.801 336.683 365.421C339.885 373.041 348.657 376.623 356.278 373.422Z" fill="#FB4C47"/>
<path d="M344.683 345.827C342.169 346.883 340.097 348.549 338.561 350.576C343.686 351.23 348.334 354.518 350.48 359.625C352.625 364.731 351.721 370.353 348.601 374.471C351.124 374.793 353.763 374.479 356.277 373.423C363.898 370.221 367.479 361.448 364.278 353.828C361.076 346.208 352.303 342.625 344.683 345.827V345.827Z" fill="#C63F3B"/>
<path d="M228.791 346.54C230.392 350.35 228.602 354.737 224.791 356.338L209.102 362.93C201.114 366.286 193.993 371.432 188.373 378.026C186.698 379.992 184.482 381.556 181.828 382.468C174.797 384.885 166.915 381.652 163.604 374.995C159.717 367.179 163.275 357.835 171.195 354.507C173.341 353.605 175.578 353.242 177.755 353.355C186.495 353.81 195.238 352.522 203.307 349.131L218.995 342.54C222.804 340.939 227.191 342.73 228.791 346.54Z" fill="#C63F3B"/>
<path d="M257.035 277.389C260.845 275.788 262.637 271.402 261.036 267.592L254.443 251.902C251.088 243.915 249.603 235.255 250.205 226.612C250.384 224.035 249.896 221.367 248.639 218.858C245.309 212.211 237.417 209.003 230.392 211.441C222.146 214.302 218.146 223.466 221.474 231.387C222.376 233.533 223.719 235.358 225.354 236.801C231.915 242.593 237.257 249.633 240.647 257.702L247.239 273.389C248.839 277.199 253.225 278.99 257.035 277.389Z" fill="#FB4C47"/>
<path d="M248.64 218.858C245.31 212.211 237.418 209.003 230.393 211.441C227.459 212.458 225.067 214.277 223.347 216.551C228.154 217.174 232.565 220.11 234.843 224.655C236.099 227.164 236.588 229.832 236.408 232.409C235.806 241.052 237.291 249.712 240.647 257.699L247.239 273.389C248.839 277.199 253.226 278.99 257.036 277.389C260.847 275.788 262.637 271.402 261.036 267.592L254.444 251.902C251.088 243.915 249.604 235.255 250.206 226.612C250.385 224.035 249.898 221.367 248.64 218.858V218.858Z" fill="#C63F3B"/>
<path d="M373.738 270.452C371.578 271.313 369.729 272.622 368.257 274.229C367.997 274.513 367.731 274.792 367.465 275.071C372.903 275.841 377.756 279.585 379.612 285.269C381.2 290.131 380.107 295.354 377.087 299.184C377.385 299.205 377.684 299.223 377.982 299.249C380.554 299.476 383.229 299.037 385.759 297.827C392.463 294.621 395.813 286.793 393.506 279.73C390.798 271.436 381.714 267.272 373.738 270.452V270.452Z" fill="#C63F3B"/>
<g opacity="0.63">
<path d="M432.882 445.025C434.098 446.741 436.475 447.147 438.192 445.931L445.261 440.925C448.86 438.376 453 436.683 457.361 436.028C458.661 435.833 459.933 435.296 461.041 434.395C463.977 432.006 464.7 427.73 462.714 424.509C460.382 420.727 455.387 419.75 451.818 422.278C450.852 422.963 450.093 423.831 449.556 424.803C447.402 428.702 444.493 432.134 440.857 434.709L433.789 439.715C432.072 440.93 431.666 443.308 432.882 445.025Z" fill="#FFC700"/>
<path d="M399.189 485.854C397.475 485.561 395.848 486.714 395.555 488.428L394.349 495.488C393.735 499.082 392.305 502.492 390.138 505.424C389.492 506.298 389.062 507.355 388.942 508.53C388.622 511.643 390.698 514.565 393.743 515.287C397.317 516.135 400.808 513.786 401.417 510.222C401.582 509.257 401.517 508.305 401.263 507.424C400.243 503.884 399.938 500.178 400.558 496.547L401.764 489.489C402.056 487.774 400.903 486.147 399.189 485.854V485.854Z" fill="#D09700"/>
<path d="M410.068 422.179C411.862 422.485 413.565 421.28 413.871 419.486L415.133 412.098C415.775 408.337 417.272 404.769 419.539 401.701C420.215 400.786 420.665 399.68 420.791 398.45C421.126 395.193 418.953 392.135 415.767 391.379C412.027 390.492 408.374 392.951 407.737 396.68C407.564 397.69 407.632 398.686 407.897 399.608C408.965 403.312 409.284 407.19 408.636 410.99L407.374 418.376C407.068 420.17 408.274 421.873 410.068 422.179V422.179Z" fill="#D09700"/>
<path d="M420.613 473.32C418.897 474.536 418.49 476.913 419.706 478.63L424.713 485.7C427.262 489.298 428.955 493.438 429.61 497.799C429.805 499.1 430.342 500.372 431.243 501.48C433.632 504.416 437.907 505.139 441.129 503.152C444.911 500.821 445.888 495.826 443.36 492.257C442.675 491.29 441.807 490.531 440.835 489.994C436.936 487.84 433.504 484.931 430.929 481.295L425.923 474.227C424.707 472.511 422.33 472.105 420.613 473.32V473.32Z" fill="#FFC700"/>
<path d="M440.835 489.993C436.935 487.838 433.504 484.929 430.929 481.294L425.923 474.225C424.707 472.509 422.329 472.103 420.613 473.318C418.896 474.534 418.49 476.912 419.706 478.628L424.712 485.697C427.287 489.332 430.718 492.241 434.618 494.396C435.589 494.932 436.458 495.691 437.143 496.658C438.771 498.957 438.943 501.848 437.85 504.237C438.986 504.135 440.11 503.779 441.129 503.151C444.911 500.819 445.887 495.824 443.36 492.255C442.675 491.288 441.806 490.529 440.835 489.993V489.993Z" fill="#D09700"/>
<path d="M372.789 454.973C378.397 451.002 379.723 443.236 375.751 437.628C371.779 432.02 364.014 430.694 358.406 434.665C352.798 438.637 351.471 446.403 355.443 452.011C359.415 457.619 367.181 458.945 372.789 454.973Z" fill="#D09700"/>
<path d="M358.406 434.665C357.322 435.433 356.4 436.344 355.642 437.353C360.659 435.772 366.331 437.507 369.535 442.031C372.739 446.554 372.493 452.48 369.336 456.688C370.539 456.309 371.705 455.741 372.789 454.973C378.397 451.001 379.724 443.236 375.752 437.628C371.78 432.02 364.014 430.694 358.406 434.665V434.665Z" fill="#FFC700"/>
<path d="M428.556 484.537C446.867 471.569 451.198 446.211 438.229 427.899C425.26 409.588 399.902 405.257 381.591 418.226C363.28 431.195 358.949 456.553 371.918 474.864C384.887 493.176 410.244 497.506 428.556 484.537Z" fill="#FFC700"/>
<path d="M381.597 418.225C380.549 418.968 379.549 419.753 378.593 420.573C396.556 410.204 419.793 415.039 432.019 432.302C444.245 449.565 441.094 473.088 425.351 486.592C426.441 485.962 427.514 485.279 428.562 484.537C446.874 471.568 451.205 446.21 438.236 427.899C425.267 409.587 399.909 405.256 381.597 418.225V418.225Z" fill="#D09700"/>
<path d="M409.679 440.759C411.033 439.8 411.353 437.925 410.394 436.571C409.435 435.216 407.56 434.896 406.206 435.855C404.851 436.814 404.531 438.69 405.49 440.044C406.449 441.398 408.325 441.718 409.679 440.759Z" fill="white"/>
<path d="M405.622 477.287C408.14 475.503 408.736 472.016 406.953 469.498C405.169 466.98 401.682 466.384 399.164 468.168C396.646 469.951 396.05 473.438 397.834 475.957C399.617 478.475 403.104 479.07 405.622 477.287Z" fill="white"/>
<path d="M387.987 453.846C391.842 451.116 392.754 445.777 390.023 441.922C387.293 438.067 381.954 437.155 378.099 439.885C374.243 442.616 373.332 447.955 376.062 451.81C378.793 455.665 384.131 456.577 387.987 453.846Z" fill="white"/>
<path d="M449.446 466.213C452.88 463.781 453.692 459.026 451.26 455.593C448.828 452.159 444.073 451.347 440.64 453.779C437.206 456.211 436.394 460.966 438.826 464.399C441.258 467.833 446.013 468.645 449.446 466.213Z" fill="#FFC700"/>
<path d="M440.641 453.779C439.509 454.582 438.663 455.638 438.123 456.815C440.742 456.574 443.415 457.696 445.045 459.996C446.674 462.297 446.845 465.19 445.749 467.581C447.038 467.463 448.315 467.016 449.448 466.214C452.882 463.782 453.693 459.027 451.262 455.593C448.83 452.16 444.075 451.347 440.641 453.779V453.779Z" fill="#D09700"/>
<path d="M383.137 466.919C384.353 468.636 383.947 471.013 382.23 472.229L375.161 477.236C371.562 479.785 368.591 483.128 366.526 487.025C365.911 488.187 364.982 489.208 363.764 489.954C360.536 491.931 356.263 491.194 353.883 488.251C351.09 484.796 351.826 479.76 355.395 477.233C356.362 476.548 357.433 476.121 358.528 475.937C362.921 475.199 367.124 473.594 370.759 471.019L377.828 466.013C379.544 464.797 381.921 465.203 383.137 466.919Z" fill="#D09700"/>
<path d="M389.539 429.443C391.255 428.227 391.662 425.85 390.446 424.133L385.439 417.064C382.89 413.465 381.197 409.325 380.542 404.964C380.347 403.664 379.81 402.392 378.909 401.284C376.521 398.348 372.245 397.625 369.023 399.611C365.241 401.943 364.265 406.938 366.792 410.507C367.477 411.474 368.346 412.232 369.317 412.769C373.217 414.924 376.648 417.832 379.223 421.468L384.229 428.536C385.445 430.253 387.822 430.659 389.539 429.443Z" fill="#FFC700"/>
<path d="M378.907 401.284C376.518 398.348 372.243 397.625 369.021 399.611C367.675 400.441 366.687 401.608 366.083 402.928C368.541 402.708 371.057 403.68 372.69 405.687C373.591 406.795 374.128 408.067 374.323 409.368C374.978 413.729 376.671 417.869 379.22 421.467L384.227 428.537C385.442 430.253 387.82 430.66 389.537 429.444C391.253 428.228 391.659 425.85 390.444 424.134L385.437 417.064C382.888 413.465 381.195 409.326 380.54 404.965C380.345 403.664 379.808 402.392 378.907 401.284V401.284Z" fill="#D09700"/>
</g>
<path d="M484.172 361.392C481.815 360.841 479.458 362.305 478.907 364.663L476.64 374.369C475.486 379.311 473.213 383.928 469.957 387.819C468.986 388.98 468.3 390.413 468.033 392.034C467.328 396.332 469.968 400.566 474.137 401.825C479.031 403.302 484.078 400.331 485.223 395.431C485.533 394.104 485.523 392.777 485.244 391.53C484.124 386.528 484.01 381.353 485.176 376.361L487.443 366.657C487.994 364.3 486.529 361.942 484.172 361.392Z" fill="#1DB776"/>
<path d="M469.973 297.088C471.672 296.032 472.194 293.798 471.138 292.098L466.789 285.097C464.575 281.534 463.205 277.506 462.833 273.327C462.722 272.081 462.286 270.843 461.493 269.739C459.393 266.814 455.375 265.882 452.201 267.583C448.476 269.581 447.262 274.268 449.458 277.802C450.053 278.759 450.834 279.529 451.726 280.095C455.305 282.364 458.397 285.323 460.633 288.923L464.982 295.922C466.039 297.622 468.273 298.144 469.973 297.088V297.088Z" fill="#128E5A"/>
<path d="M509.196 360.223C507.417 361.329 506.871 363.666 507.976 365.445L512.527 372.771C514.844 376.5 516.277 380.715 516.666 385.087C516.782 386.391 517.239 387.687 518.069 388.842C520.266 391.903 524.471 392.878 527.792 391.098C531.69 389.008 532.96 384.103 530.663 380.405C530.04 379.403 529.222 378.597 528.289 378.005C524.544 375.63 521.309 372.534 518.968 368.767L514.418 361.443C513.312 359.664 510.974 359.118 509.196 360.223V360.223Z" fill="#128E5A"/>
<path d="M461.083 324.233C461.633 321.876 460.169 319.518 457.812 318.968L448.105 316.701C443.164 315.546 438.547 313.273 434.655 310.017C433.495 309.046 432.062 308.36 430.44 308.094C426.143 307.388 421.909 310.028 420.65 314.197C419.172 319.092 422.143 324.138 427.043 325.283C428.371 325.593 429.698 325.584 430.944 325.304C435.946 324.184 441.121 324.071 446.113 325.237L455.818 327.504C458.175 328.054 460.532 326.59 461.083 324.233V324.233Z" fill="#1DB776"/>
<path d="M430.946 325.305C435.948 324.184 441.123 324.071 446.115 325.237L455.82 327.504C458.177 328.054 460.534 326.59 461.085 324.233C461.635 321.876 460.171 319.519 457.814 318.968L448.109 316.701C443.117 315.535 437.942 315.648 432.94 316.769C431.693 317.048 430.366 317.057 429.039 316.747C425.882 316.01 423.528 313.652 422.646 310.76C421.746 311.715 421.05 312.879 420.652 314.198C419.174 319.092 422.145 324.139 427.045 325.283C428.372 325.593 429.699 325.584 430.946 325.305V325.305Z" fill="#128E5A"/>
<path d="M516.274 303.534C514.475 311.234 519.259 318.935 526.959 320.733C534.659 322.532 542.359 317.748 544.158 310.048C545.957 302.348 541.173 294.647 533.473 292.849C525.772 291.05 518.072 295.834 516.274 303.534Z" fill="#128E5A"/>
<path d="M544.16 310.049C544.508 308.56 544.607 307.072 544.489 305.625C541.375 310.816 535.166 313.649 528.955 312.199C522.744 310.748 518.433 305.457 517.941 299.424C517.194 300.668 516.624 302.047 516.276 303.536C514.477 311.236 519.261 318.936 526.961 320.735C534.661 322.534 542.362 317.749 544.16 310.049V310.049Z" fill="#1DB776"/>
<path d="M445.681 320.637C439.808 345.779 455.429 370.922 480.572 376.795C505.714 382.668 530.857 367.047 536.73 341.904C542.603 316.762 526.982 291.619 501.839 285.746C476.697 279.873 451.554 295.494 445.681 320.637Z" fill="#1DB776"/>
<path d="M536.739 341.903C537.075 340.464 537.337 339.025 537.535 337.589C529.977 360.227 506.277 373.795 482.574 368.258C458.871 362.722 443.634 340.058 446.887 316.415C446.428 317.79 446.026 319.196 445.69 320.636C439.817 345.779 455.438 370.921 480.58 376.794C505.723 382.667 530.866 367.046 536.739 341.903V341.903Z" fill="#128E5A"/>
<path d="M493.529 349.818C492.336 354.925 495.509 360.032 500.616 361.225C505.723 362.418 510.83 359.245 512.023 354.138C513.216 349.031 510.043 343.924 504.936 342.731C499.829 341.538 494.722 344.711 493.529 349.818Z" fill="#128E5A"/>
<path d="M512.033 354.137C512.393 352.597 512.353 351.057 511.985 349.625C509.752 352.223 506.187 353.521 502.62 352.688C499.053 351.855 496.431 349.111 495.58 345.793C494.616 346.914 493.898 348.277 493.538 349.817C492.346 354.924 495.519 360.031 500.626 361.224C505.733 362.417 510.84 359.244 512.033 354.137V354.137Z" fill="white"/>
<path d="M470.964 309.38C470.157 312.837 472.305 316.295 475.762 317.102C479.219 317.91 482.677 315.762 483.484 312.305C484.292 308.847 482.144 305.39 478.686 304.582C475.229 303.775 471.772 305.923 470.964 309.38Z" fill="white"/>
<path d="M441.671 352.36C440.57 357.075 443.499 361.79 448.214 362.891C452.929 363.993 457.644 361.063 458.745 356.348C459.846 351.633 456.917 346.918 452.202 345.817C447.487 344.716 442.772 347.645 441.671 352.36Z" fill="#1DB776"/>
<path d="M458.749 356.347C459.112 354.792 459.034 353.237 458.601 351.811C456.529 354.017 453.371 355.091 450.212 354.353C447.052 353.615 444.697 351.253 443.817 348.357C442.796 349.444 442.038 350.803 441.674 352.359C440.573 357.074 443.503 361.789 448.217 362.89C452.932 363.991 457.648 361.062 458.749 356.347V356.347Z" fill="#128E5A"/>
<path d="M498.244 301.147C495.887 300.596 494.422 298.239 494.973 295.882L497.24 286.175C498.394 281.234 498.402 276.088 497.207 271.156C496.85 269.686 496.87 268.097 497.35 266.525C498.621 262.36 502.863 259.734 507.158 260.452C512.201 261.296 515.41 266.195 514.265 271.095C513.955 272.422 513.358 273.608 512.556 274.601C509.336 278.59 506.941 283.179 505.775 288.171L503.508 297.876C502.958 300.233 500.601 301.697 498.244 301.147Z" fill="#128E5A"/>
<path d="M521.332 338.307C520.781 340.664 522.246 343.022 524.603 343.572L534.31 345.84C539.251 346.994 543.868 349.267 547.76 352.523C548.92 353.494 550.353 354.18 551.975 354.446C556.272 355.152 560.506 352.512 561.765 348.343C563.242 343.449 560.272 338.402 555.372 337.257C554.044 336.947 552.717 336.957 551.471 337.236C546.468 338.356 541.294 338.47 536.302 337.304L526.597 335.037C524.24 334.486 521.883 335.95 521.332 338.307Z" fill="#1DB776"/>
<path d="M551.973 354.444C556.271 355.15 560.505 352.51 561.764 348.341C562.289 346.6 562.25 344.84 561.763 343.243C559.814 345.308 556.906 346.391 553.967 345.908C552.346 345.642 550.912 344.956 549.752 343.985C545.861 340.729 541.243 338.456 536.302 337.302L526.596 335.034C524.239 334.484 521.881 335.948 521.331 338.305C520.78 340.663 522.244 343.02 524.602 343.57L534.308 345.838C539.25 346.992 543.867 349.265 547.758 352.521C548.919 353.492 550.352 354.178 551.973 354.444V354.444Z" fill="#128E5A"/>
<path d="M485.221 395.437C485.53 394.111 485.521 392.784 485.242 391.538C485.193 391.318 485.148 391.096 485.102 390.875C482.911 393.231 479.486 394.308 476.132 393.295C473.264 392.429 471.121 390.155 470.292 387.42C470.182 387.556 470.074 387.694 469.961 387.828C468.991 388.988 468.305 390.42 468.039 392.042C467.334 396.337 469.972 400.569 474.14 401.828C479.032 403.305 484.076 400.335 485.221 395.437V395.437Z" fill="#128E5A"/>
<g opacity="0.62">
<path d="M273.319 620.925C235.696 637.086 197.219 645.929 155.225 640.756C108.418 634.986 65.734 598.038 40.4997 560.06C31.1241 545.954 23.3527 530.015 23.127 513.082C22.62 473.965 59.1652 467.204 90.8395 471.469C108.694 473.865 125.402 480.88 141.922 487.83C169.349 499.378 200.931 503.876 225.944 520.731C234.339 526.405 240.825 533.456 250.404 537.358C265.305 543.431 282.007 545.668 297.258 551.086C310.281 555.739 325.027 563.828 325.946 577.621C326.871 591.767 312.701 601.746 300.1 608.224C291.183 612.836 282.283 617.091 273.319 620.925Z" fill="url(#paint5_linear)"/>
<path d="M98.7228 127.325C155.746 30.2262 283.773 -15.6233 391.805 12.4321C443.899 25.9694 488.928 58.2993 530.724 92.1836C567.566 122.048 603.536 154.505 629.96 194.264C648.002 221.402 661.804 254.444 672.052 285.464C687.378 331.91 680.234 393.512 618.87 393.038C604.472 392.929 591.739 388.585 578.043 384.952C566.964 382.005 556.484 384.89 545.113 383.84C516.49 381.203 488.519 372.555 461.914 362.023C407.694 340.536 357.428 309.817 301.915 291.511C256.423 276.532 208.485 270.395 160.686 273.429C140.521 274.713 119.413 277.508 100.789 269.669C54.8826 250.33 70.9583 189.051 85.3582 154.23C89.1701 144.956 93.6362 135.965 98.7228 127.325V127.325Z" fill="url(#paint6_linear)"/>
<path d="M594.327 109.067C605.328 117.797 647.815 140.815 646.633 110.625C646.328 103.105 642.447 96.0369 637.453 90.8409C631.739 84.8758 625.511 81.9576 620.891 74.875C615.245 66.3276 608.933 58.36 602.036 51.0753C587.921 35.8975 571.694 22.0816 552.749 16.6907C539.461 12.9151 517.55 15.513 512.468 32.5589C505.063 57.3735 543.779 59.3045 556.074 67.369C567.741 75.0005 574.977 88.9497 584.533 99.7874C587.551 103.204 590.83 106.311 594.327 109.067V109.067Z" fill="url(#paint7_linear)"/>
<path d="M400.326 92.1365C423.172 103.654 440.942 121.966 462.021 136.271C497.114 160.085 543.237 162.415 582.715 177.992C622.97 193.887 654.329 220.626 670.358 261.068C691.063 313.268 696.839 376.576 685.785 432.353C673.608 493.749 638.38 536.304 584.791 566.648C531.234 596.974 470.785 613.44 409.853 620.001C403.973 620.639 398.095 621.16 392.188 621.583C259.502 631.019 79.7705 595.83 25.2711 456.187C24.7718 454.911 24.2898 453.634 23.8054 452.339C18.1117 436.757 14.3041 420.549 12.4638 404.061C5.79433 345.62 11.8311 280.24 28.7976 223.938C40.2068 186.035 67.9334 152.806 97.8466 128.466C139.875 94.2717 193.128 82.769 246.404 75.5178C285.855 70.1499 330.363 66.2242 368.831 78.9374C379.644 82.544 390.172 86.9561 400.326 92.1365Z" fill="url(#paint8_linear)"/>
</g>
<path d="M326.175 305.624C327.776 309.434 332.162 311.225 335.972 309.624L351.662 303.032C359.649 299.676 368.309 298.192 376.952 298.793C379.529 298.973 382.197 298.485 384.706 297.228C391.353 293.898 394.561 286.005 392.123 278.981C389.262 270.735 380.098 266.735 372.177 270.063C370.032 270.964 368.206 272.307 366.763 273.942C360.971 280.503 353.931 285.846 345.862 289.236L330.175 295.827C326.365 297.427 324.574 301.814 326.175 305.624Z" fill="#FB4C47"/>
<path d="M251.515 389.692C248.352 388.4 244.741 389.918 243.449 393.081L238.13 406.108C235.423 412.739 231.228 418.669 225.824 423.37C224.212 424.772 222.938 426.617 222.206 428.818C220.267 434.651 223.005 441.141 228.537 443.822C235.031 446.97 242.726 443.951 245.411 437.375C246.139 435.594 246.42 433.742 246.309 431.943C245.859 424.721 246.852 417.482 249.587 410.783L254.905 397.759C256.196 394.595 254.678 390.983 251.515 389.692V389.692Z" fill="#C63F3B"/>
<path d="M299.488 272.205C302.798 273.556 306.577 271.969 307.929 268.658L313.494 255.027C316.328 248.088 320.717 241.882 326.372 236.963C328.058 235.496 329.392 233.566 330.158 231.262C332.187 225.158 329.321 218.367 323.533 215.561C316.738 212.267 308.684 215.427 305.875 222.308C305.114 224.172 304.819 226.11 304.936 227.993C305.406 235.55 304.368 243.125 301.506 250.135L295.941 263.764C294.59 267.074 296.178 270.853 299.488 272.205V272.205Z" fill="#C63F3B"/>
<path d="M297.948 374.774C294.138 376.374 292.346 380.761 293.947 384.571L300.539 400.261C303.895 408.248 305.38 416.908 304.778 425.551C304.599 428.127 305.087 430.796 306.343 433.304C309.674 439.952 317.566 443.16 324.59 440.722C332.837 437.86 336.836 428.697 333.509 420.776C332.607 418.63 331.264 416.805 329.629 415.362C323.068 409.57 317.726 402.53 314.336 394.461L307.745 378.774C306.144 374.964 301.758 373.173 297.948 374.774V374.774Z" fill="#FB4C47"/>
<path d="M329.627 415.363C323.066 409.57 317.723 402.531 314.333 394.462L307.742 378.774C306.141 374.964 301.755 373.173 297.944 374.774C294.134 376.375 292.343 380.761 293.944 384.571L300.535 400.259C303.926 408.328 309.268 415.367 315.829 421.16C317.464 422.603 318.807 424.428 319.708 426.574C321.852 431.677 320.951 437.293 317.837 441.41C320.059 441.698 322.367 441.494 324.588 440.723C332.834 437.861 336.834 428.697 333.506 420.777C332.605 418.631 331.262 416.806 329.627 415.363V415.363Z" fill="#C63F3B"/>
<path d="M214.029 319.224C226.476 313.994 232.326 299.665 227.097 287.219C221.867 274.772 207.538 268.922 195.092 274.151C182.645 279.381 176.795 293.71 182.024 306.156C187.254 318.603 201.583 324.453 214.029 319.224Z" fill="#FF8F8C"/>
<path d="M195.097 274.15C192.69 275.162 190.533 276.516 188.652 278.129C198.947 277.232 209.086 282.976 213.304 293.015C217.522 303.055 214.528 314.316 206.682 321.042C209.15 320.827 211.627 320.234 214.034 319.223C226.481 313.994 232.331 299.665 227.102 287.218C221.872 274.771 207.543 268.921 195.097 274.15V274.15Z" fill="#FB4C47"/>
<path d="M308.405 399.669C349.046 382.593 368.149 335.805 351.074 295.165C333.999 254.524 287.211 235.421 246.57 252.496C205.929 269.571 186.826 316.359 203.901 357C220.977 397.641 267.765 416.744 308.405 399.669Z" fill="#FB4C47"/>
<path d="M246.57 252.495C244.244 253.473 241.991 254.552 239.808 255.718C278.675 243.481 321.18 262.647 337.277 300.961C353.375 339.274 337.315 383.047 301.371 402.242C303.731 401.499 306.079 400.645 308.406 399.668C349.047 382.592 368.15 335.805 351.075 295.164C334 254.523 287.211 235.42 246.57 252.495V252.495Z" fill="#C63F3B"/>
<path d="M300.796 304.281C309.051 300.813 312.932 291.309 309.463 283.054C305.995 274.798 296.491 270.918 288.236 274.387C279.98 277.855 276.1 287.359 279.569 295.614C283.037 303.869 292.541 307.75 300.796 304.281Z" fill="#C63F3B"/>
<path d="M288.234 274.387C285.745 275.433 283.657 277.03 282.045 278.974C287.874 279.458 293.242 283.085 295.664 288.851C298.087 294.617 296.921 300.989 293.186 305.492C295.703 305.701 298.305 305.327 300.795 304.281C309.05 300.813 312.93 291.309 309.462 283.054C305.993 274.799 296.49 270.918 288.234 274.387V274.387Z" fill="white"/>
<path d="M267.514 375.999C273.103 373.651 275.729 367.217 273.381 361.629C271.033 356.041 264.6 353.414 259.012 355.762C253.423 358.11 250.797 364.543 253.145 370.132C255.493 375.72 261.926 378.347 267.514 375.999Z" fill="white"/>
<path d="M356.278 373.422C363.898 370.22 367.48 361.447 364.278 353.827C361.076 346.207 352.304 342.625 344.683 345.826C337.063 349.028 333.481 357.801 336.683 365.421C339.885 373.041 348.657 376.623 356.278 373.422Z" fill="#FB4C47"/>
<path d="M344.683 345.827C342.169 346.883 340.097 348.549 338.561 350.576C343.686 351.23 348.334 354.518 350.48 359.625C352.625 364.731 351.721 370.353 348.601 374.471C351.124 374.793 353.763 374.479 356.277 373.423C363.898 370.221 367.479 361.448 364.278 353.828C361.076 346.208 352.303 342.625 344.683 345.827V345.827Z" fill="#C63F3B"/>
<path d="M228.791 346.54C230.392 350.35 228.602 354.737 224.791 356.338L209.102 362.93C201.114 366.286 193.993 371.432 188.373 378.026C186.698 379.992 184.482 381.556 181.828 382.468C174.797 384.885 166.915 381.652 163.604 374.995C159.717 367.179 163.275 357.835 171.195 354.507C173.341 353.605 175.578 353.242 177.755 353.355C186.495 353.81 195.238 352.522 203.307 349.131L218.995 342.54C222.804 340.939 227.191 342.73 228.791 346.54Z" fill="#C63F3B"/>
<path d="M257.035 277.389C260.845 275.788 262.637 271.402 261.036 267.592L254.443 251.902C251.088 243.915 249.603 235.255 250.205 226.612C250.384 224.035 249.896 221.367 248.639 218.858C245.309 212.211 237.417 209.003 230.392 211.441C222.146 214.302 218.146 223.466 221.474 231.387C222.376 233.533 223.719 235.358 225.354 236.801C231.915 242.593 237.257 249.633 240.647 257.702L247.239 273.389C248.839 277.199 253.225 278.99 257.035 277.389Z" fill="#FB4C47"/>
<path d="M248.64 218.858C245.31 212.211 237.418 209.003 230.393 211.441C227.459 212.458 225.067 214.277 223.347 216.551C228.154 217.174 232.565 220.11 234.843 224.655C236.099 227.164 236.588 229.832 236.408 232.409C235.806 241.052 237.291 249.712 240.647 257.699L247.239 273.389C248.839 277.199 253.226 278.99 257.036 277.389C260.847 275.788 262.637 271.402 261.036 267.592L254.444 251.902C251.088 243.915 249.604 235.255 250.206 226.612C250.385 224.035 249.898 221.367 248.64 218.858V218.858Z" fill="#C63F3B"/>
<path d="M373.738 270.452C371.578 271.313 369.729 272.622 368.257 274.229C367.997 274.513 367.731 274.792 367.465 275.071C372.903 275.841 377.756 279.585 379.612 285.269C381.2 290.131 380.107 295.354 377.087 299.184C377.385 299.205 377.684 299.223 377.982 299.249C380.554 299.476 383.229 299.037 385.759 297.827C392.463 294.621 395.813 286.793 393.506 279.73C390.798 271.436 381.714 267.272 373.738 270.452V270.452Z" fill="#C63F3B"/>
<g opacity="0.63">
<path d="M432.882 445.025C434.098 446.741 436.475 447.147 438.192 445.931L445.261 440.925C448.86 438.376 453 436.683 457.361 436.028C458.661 435.833 459.933 435.296 461.041 434.395C463.977 432.006 464.7 427.73 462.714 424.509C460.382 420.727 455.387 419.75 451.818 422.278C450.852 422.963 450.093 423.831 449.556 424.803C447.402 428.702 444.493 432.134 440.857 434.709L433.789 439.715C432.072 440.93 431.666 443.308 432.882 445.025Z" fill="#FFC700"/>
<path d="M399.189 485.854C397.475 485.561 395.848 486.714 395.555 488.428L394.349 495.488C393.735 499.082 392.305 502.492 390.138 505.424C389.492 506.298 389.062 507.355 388.942 508.53C388.622 511.643 390.698 514.565 393.743 515.287C397.317 516.135 400.808 513.786 401.417 510.222C401.582 509.257 401.517 508.305 401.263 507.424C400.243 503.884 399.938 500.178 400.558 496.547L401.764 489.489C402.056 487.774 400.903 486.147 399.189 485.854V485.854Z" fill="#D09700"/>
<path d="M410.068 422.179C411.862 422.485 413.565 421.28 413.871 419.486L415.133 412.098C415.775 408.337 417.272 404.769 419.539 401.701C420.215 400.786 420.665 399.68 420.791 398.45C421.126 395.193 418.953 392.135 415.767 391.379C412.027 390.492 408.374 392.951 407.737 396.68C407.564 397.69 407.632 398.686 407.897 399.608C408.965 403.312 409.284 407.19 408.636 410.99L407.374 418.376C407.068 420.17 408.274 421.873 410.068 422.179V422.179Z" fill="#D09700"/>
<path d="M420.613 473.32C418.897 474.536 418.49 476.913 419.706 478.63L424.713 485.7C427.262 489.298 428.955 493.438 429.61 497.799C429.805 499.1 430.342 500.372 431.243 501.48C433.632 504.416 437.907 505.139 441.129 503.152C444.911 500.821 445.888 495.826 443.36 492.257C442.675 491.29 441.807 490.531 440.835 489.994C436.936 487.84 433.504 484.931 430.929 481.295L425.923 474.227C424.707 472.511 422.33 472.105 420.613 473.32V473.32Z" fill="#FFC700"/>
<path d="M440.835 489.993C436.935 487.838 433.504 484.929 430.929 481.294L425.923 474.225C424.707 472.509 422.329 472.103 420.613 473.318C418.896 474.534 418.49 476.912 419.706 478.628L424.712 485.697C427.287 489.332 430.718 492.241 434.618 494.396C435.589 494.932 436.458 495.691 437.143 496.658C438.771 498.957 438.943 501.848 437.85 504.237C438.986 504.135 440.11 503.779 441.129 503.151C444.911 500.819 445.887 495.824 443.36 492.255C442.675 491.288 441.806 490.529 440.835 489.993V489.993Z" fill="#D09700"/>
<path d="M372.789 454.973C378.397 451.002 379.723 443.236 375.751 437.628C371.779 432.02 364.014 430.694 358.406 434.665C352.798 438.637 351.471 446.403 355.443 452.011C359.415 457.619 367.181 458.945 372.789 454.973Z" fill="#D09700"/>
<path d="M358.406 434.665C357.322 435.433 356.4 436.344 355.642 437.353C360.659 435.772 366.331 437.507 369.535 442.031C372.739 446.554 372.493 452.48 369.336 456.688C370.539 456.309 371.705 455.741 372.789 454.973C378.397 451.001 379.724 443.236 375.752 437.628C371.78 432.02 364.014 430.694 358.406 434.665V434.665Z" fill="#FFC700"/>
<path d="M428.556 484.537C446.867 471.569 451.198 446.211 438.229 427.899C425.26 409.588 399.902 405.257 381.591 418.226C363.28 431.195 358.949 456.553 371.918 474.864C384.887 493.176 410.244 497.506 428.556 484.537Z" fill="#FFC700"/>
<path d="M381.597 418.225C380.549 418.968 379.549 419.753 378.593 420.573C396.556 410.204 419.793 415.039 432.019 432.302C444.245 449.565 441.094 473.088 425.351 486.592C426.441 485.962 427.514 485.279 428.562 484.537C446.874 471.568 451.205 446.21 438.236 427.899C425.267 409.587 399.909 405.256 381.597 418.225V418.225Z" fill="#D09700"/>
<path d="M409.679 440.759C411.033 439.8 411.353 437.925 410.394 436.571C409.435 435.216 407.56 434.896 406.206 435.855C404.851 436.814 404.531 438.69 405.49 440.044C406.449 441.398 408.325 441.718 409.679 440.759Z" fill="white"/>
<path d="M405.622 477.287C408.14 475.503 408.736 472.016 406.953 469.498C405.169 466.98 401.682 466.384 399.164 468.168C396.646 469.951 396.05 473.438 397.834 475.957C399.617 478.475 403.104 479.07 405.622 477.287Z" fill="white"/>
<path d="M387.987 453.846C391.842 451.116 392.754 445.777 390.023 441.922C387.293 438.067 381.954 437.155 378.099 439.885C374.243 442.616 373.332 447.955 376.062 451.81C378.793 455.665 384.131 456.577 387.987 453.846Z" fill="white"/>
<path d="M449.446 466.213C452.88 463.781 453.692 459.026 451.26 455.593C448.828 452.159 444.073 451.347 440.64 453.779C437.206 456.211 436.394 460.966 438.826 464.399C441.258 467.833 446.013 468.645 449.446 466.213Z" fill="#FFC700"/>
<path d="M440.641 453.779C439.509 454.582 438.663 455.638 438.123 456.815C440.742 456.574 443.415 457.696 445.045 459.996C446.674 462.297 446.845 465.19 445.749 467.581C447.038 467.463 448.315 467.016 449.448 466.214C452.882 463.782 453.693 459.027 451.262 455.593C448.83 452.16 444.075 451.347 440.641 453.779V453.779Z" fill="#D09700"/>
<path d="M383.137 466.919C384.353 468.636 383.947 471.013 382.23 472.229L375.161 477.236C371.562 479.785 368.591 483.128 366.526 487.025C365.911 488.187 364.982 489.208 363.764 489.954C360.536 491.931 356.263 491.194 353.883 488.251C351.09 484.796 351.826 479.76 355.395 477.233C356.362 476.548 357.433 476.121 358.528 475.937C362.921 475.199 367.124 473.594 370.759 471.019L377.828 466.013C379.544 464.797 381.921 465.203 383.137 466.919Z" fill="#D09700"/>
<path d="M389.539 429.443C391.255 428.227 391.662 425.85 390.446 424.133L385.439 417.064C382.89 413.465 381.197 409.325 380.542 404.964C380.347 403.664 379.81 402.392 378.909 401.284C376.521 398.348 372.245 397.625 369.023 399.611C365.241 401.943 364.265 406.938 366.792 410.507C367.477 411.474 368.346 412.232 369.317 412.769C373.217 414.924 376.648 417.832 379.223 421.468L384.229 428.536C385.445 430.253 387.822 430.659 389.539 429.443Z" fill="#FFC700"/>
<path d="M378.907 401.284C376.518 398.348 372.243 397.625 369.021 399.611C367.675 400.441 366.687 401.608 366.083 402.928C368.541 402.708 371.057 403.68 372.69 405.687C373.591 406.795 374.128 408.067 374.323 409.368C374.978 413.729 376.671 417.869 379.22 421.467L384.227 428.537C385.442 430.253 387.82 430.66 389.537 429.444C391.253 428.228 391.659 425.85 390.444 424.134L385.437 417.064C382.888 413.465 381.195 409.326 380.54 404.965C380.345 403.664 379.808 402.392 378.907 401.284V401.284Z" fill="#D09700"/>
</g>
<path d="M484.172 361.392C481.815 360.841 479.458 362.305 478.907 364.663L476.64 374.369C475.486 379.311 473.213 383.928 469.957 387.819C468.986 388.98 468.3 390.413 468.033 392.034C467.328 396.332 469.968 400.566 474.137 401.825C479.031 403.302 484.078 400.331 485.223 395.431C485.533 394.104 485.523 392.777 485.244 391.53C484.124 386.528 484.01 381.353 485.176 376.361L487.443 366.657C487.994 364.3 486.529 361.942 484.172 361.392Z" fill="#1DB776"/>
<path d="M469.973 297.088C471.672 296.032 472.194 293.798 471.138 292.098L466.789 285.097C464.575 281.534 463.205 277.506 462.833 273.327C462.722 272.081 462.286 270.843 461.493 269.739C459.393 266.814 455.375 265.882 452.201 267.583C448.476 269.581 447.262 274.268 449.458 277.802C450.053 278.759 450.834 279.529 451.726 280.095C455.305 282.364 458.397 285.323 460.633 288.923L464.982 295.922C466.039 297.622 468.273 298.144 469.973 297.088V297.088Z" fill="#128E5A"/>
<path d="M509.196 360.223C507.417 361.329 506.871 363.666 507.976 365.445L512.527 372.771C514.844 376.5 516.277 380.715 516.666 385.087C516.782 386.391 517.239 387.687 518.069 388.842C520.266 391.903 524.471 392.878 527.792 391.098C531.69 389.008 532.96 384.103 530.663 380.405C530.04 379.403 529.222 378.597 528.289 378.005C524.544 375.63 521.309 372.534 518.968 368.767L514.418 361.443C513.312 359.664 510.974 359.118 509.196 360.223V360.223Z" fill="#128E5A"/>
<path d="M461.083 324.233C461.633 321.876 460.169 319.518 457.812 318.968L448.105 316.701C443.164 315.546 438.547 313.273 434.655 310.017C433.495 309.046 432.062 308.36 430.44 308.094C426.143 307.388 421.909 310.028 420.65 314.197C419.172 319.092 422.143 324.138 427.043 325.283C428.371 325.593 429.698 325.584 430.944 325.304C435.946 324.184 441.121 324.071 446.113 325.237L455.818 327.504C458.175 328.054 460.532 326.59 461.083 324.233V324.233Z" fill="#1DB776"/>
<path d="M430.946 325.305C435.948 324.184 441.123 324.071 446.115 325.237L455.82 327.504C458.177 328.054 460.534 326.59 461.085 324.233C461.635 321.876 460.171 319.519 457.814 318.968L448.109 316.701C443.117 315.535 437.942 315.648 432.94 316.769C431.693 317.048 430.366 317.057 429.039 316.747C425.882 316.01 423.528 313.652 422.646 310.76C421.746 311.715 421.05 312.879 420.652 314.198C419.174 319.092 422.145 324.139 427.045 325.283C428.372 325.593 429.699 325.584 430.946 325.305V325.305Z" fill="#128E5A"/>
<path d="M516.274 303.534C514.475 311.234 519.259 318.935 526.959 320.733C534.659 322.532 542.359 317.748 544.158 310.048C545.957 302.348 541.173 294.647 533.473 292.849C525.772 291.05 518.072 295.834 516.274 303.534Z" fill="#128E5A"/>
<path d="M544.16 310.049C544.508 308.56 544.607 307.072 544.489 305.625C541.375 310.816 535.166 313.649 528.955 312.199C522.744 310.748 518.433 305.457 517.941 299.424C517.194 300.668 516.624 302.047 516.276 303.536C514.477 311.236 519.261 318.936 526.961 320.735C534.661 322.534 542.362 317.749 544.16 310.049V310.049Z" fill="#1DB776"/>
<path d="M445.681 320.637C439.808 345.779 455.429 370.922 480.572 376.795C505.714 382.668 530.857 367.047 536.73 341.904C542.603 316.762 526.982 291.619 501.839 285.746C476.697 279.873 451.554 295.494 445.681 320.637Z" fill="#1DB776"/>
<path d="M536.739 341.903C537.075 340.464 537.337 339.025 537.535 337.589C529.977 360.227 506.277 373.795 482.574 368.258C458.871 362.722 443.634 340.058 446.887 316.415C446.428 317.79 446.026 319.196 445.69 320.636C439.817 345.779 455.438 370.921 480.58 376.794C505.723 382.667 530.866 367.046 536.739 341.903V341.903Z" fill="#128E5A"/>
<path d="M493.529 349.818C492.336 354.925 495.509 360.032 500.616 361.225C505.723 362.418 510.83 359.245 512.023 354.138C513.216 349.031 510.043 343.924 504.936 342.731C499.829 341.538 494.722 344.711 493.529 349.818Z" fill="#128E5A"/>
<path d="M512.033 354.137C512.393 352.597 512.353 351.057 511.985 349.625C509.752 352.223 506.187 353.521 502.62 352.688C499.053 351.855 496.431 349.111 495.58 345.793C494.616 346.914 493.898 348.277 493.538 349.817C492.346 354.924 495.519 360.031 500.626 361.224C505.733 362.417 510.84 359.244 512.033 354.137V354.137Z" fill="white"/>
<path d="M470.964 309.38C470.157 312.837 472.305 316.295 475.762 317.102C479.219 317.91 482.677 315.762 483.484 312.305C484.292 308.847 482.144 305.39 478.686 304.582C475.229 303.775 471.772 305.923 470.964 309.38Z" fill="white"/>
<path d="M441.671 352.36C440.57 357.075 443.499 361.79 448.214 362.891C452.929 363.993 457.644 361.063 458.745 356.348C459.846 351.633 456.917 346.918 452.202 345.817C447.487 344.716 442.772 347.645 441.671 352.36Z" fill="#1DB776"/>
<path d="M458.749 356.347C459.112 354.792 459.034 353.237 458.601 351.811C456.529 354.017 453.371 355.091 450.212 354.353C447.052 353.615 444.697 351.253 443.817 348.357C442.796 349.444 442.038 350.803 441.674 352.359C440.573 357.074 443.503 361.789 448.217 362.89C452.932 363.991 457.648 361.062 458.749 356.347V356.347Z" fill="#128E5A"/>
<path d="M498.244 301.147C495.887 300.596 494.422 298.239 494.973 295.882L497.24 286.175C498.394 281.234 498.402 276.088 497.207 271.156C496.85 269.686 496.87 268.097 497.35 266.525C498.621 262.36 502.863 259.734 507.158 260.452C512.201 261.296 515.41 266.195 514.265 271.095C513.955 272.422 513.358 273.608 512.556 274.601C509.336 278.59 506.941 283.179 505.775 288.171L503.508 297.876C502.958 300.233 500.601 301.697 498.244 301.147Z" fill="#128E5A"/>
<path d="M521.332 338.307C520.781 340.664 522.246 343.022 524.603 343.572L534.31 345.84C539.251 346.994 543.868 349.267 547.76 352.523C548.92 353.494 550.353 354.18 551.975 354.446C556.272 355.152 560.506 352.512 561.765 348.343C563.242 343.449 560.272 338.402 555.372 337.257C554.044 336.947 552.717 336.957 551.471 337.236C546.468 338.356 541.294 338.47 536.302 337.304L526.597 335.037C524.24 334.486 521.883 335.95 521.332 338.307Z" fill="#1DB776"/>
<path d="M551.973 354.444C556.271 355.15 560.505 352.51 561.764 348.341C562.289 346.6 562.25 344.84 561.763 343.243C559.814 345.308 556.906 346.391 553.967 345.908C552.346 345.642 550.912 344.956 549.752 343.985C545.861 340.729 541.243 338.456 536.302 337.302L526.596 335.034C524.239 334.484 521.881 335.948 521.331 338.305C520.78 340.663 522.244 343.02 524.602 343.57L534.308 345.838C539.25 346.992 543.867 349.265 547.758 352.521C548.919 353.492 550.352 354.178 551.973 354.444V354.444Z" fill="#128E5A"/>
<path d="M485.221 395.437C485.53 394.111 485.521 392.784 485.242 391.538C485.193 391.318 485.148 391.096 485.102 390.875C482.911 393.231 479.486 394.308 476.132 393.295C473.264 392.429 471.121 390.155 470.292 387.42C470.182 387.556 470.074 387.694 469.961 387.828C468.991 388.988 468.305 390.42 468.039 392.042C467.334 396.337 469.972 400.569 474.14 401.828C479.032 403.305 484.076 400.335 485.221 395.437V395.437Z" fill="#128E5A"/>
<rect x="-141" y="-1057" width="1920" height="1061" fill="url(#paint9_linear)"/>
</g>
<defs>
<linearGradient id="paint0_linear" x1="819" y1="74.5" x2="819" y2="-1079" gradientUnits="userSpaceOnUse">
<stop stop-color="white"/>
<stop offset="1" stop-color="white"/>
</linearGradient>
<linearGradient id="paint1_linear" x1="20.0595" y1="518.687" x2="69.076" y2="654.827" gradientUnits="userSpaceOnUse">
<stop stop-color="#FFD8D8"/>
<stop offset="1" stop-color="#FFF8F8"/>
</linearGradient>
<linearGradient id="paint2_linear" x1="666.47" y1="173.694" x2="229.853" y2="-63.655" gradientUnits="userSpaceOnUse">
<stop stop-color="#FFF8F8"/>
<stop offset="1" stop-color="#FFCFCF"/>
</linearGradient>
<linearGradient id="paint3_linear" x1="647.658" y1="110.028" x2="489.938" y2="54.5056" gradientUnits="userSpaceOnUse">
<stop stop-color="#FFD7D7"/>
<stop offset="1" stop-color="#FFF9F9"/>
</linearGradient>
<linearGradient id="paint4_linear" x1="641.235" y1="544.48" x2="1.06678" y2="227.53" gradientUnits="userSpaceOnUse">
<stop stop-color="#FFCFCF"/>
<stop offset="1" stop-color="#FFF8F8"/>
</linearGradient>
<linearGradient id="paint5_linear" x1="20.0595" y1="518.687" x2="69.076" y2="654.827" gradientUnits="userSpaceOnUse">
<stop stop-color="#FFD8D8"/>
<stop offset="1" stop-color="#FFF8F8"/>
</linearGradient>
<linearGradient id="paint6_linear" x1="666.47" y1="173.694" x2="229.853" y2="-63.655" gradientUnits="userSpaceOnUse">
<stop stop-color="#FFF8F8"/>
<stop offset="1" stop-color="#FFCFCF"/>
</linearGradient>
<linearGradient id="paint7_linear" x1="647.658" y1="110.028" x2="489.938" y2="54.5056" gradientUnits="userSpaceOnUse">
<stop stop-color="#FFD7D7"/>
<stop offset="1" stop-color="#FFF9F9"/>
</linearGradient>
<linearGradient id="paint8_linear" x1="641.235" y1="544.48" x2="1.06678" y2="227.53" gradientUnits="userSpaceOnUse">
<stop stop-color="#FFCFCF"/>
<stop offset="1" stop-color="#FFF8F8"/>
</linearGradient>
<linearGradient id="paint9_linear" x1="803.5" y1="318.5" x2="803.5" y2="-480.5" gradientUnits="userSpaceOnUse">
<stop stop-color="white" stop-opacity="0"/>
<stop offset="1" stop-color="#FFF8F8"/>
<stop offset="1" stop-color="#B57474"/>
</linearGradient>
<clipPath id="clip0">
<rect width="1920" height="8133" fill="white" transform="translate(-141 -1057)"/>
</clipPath>
</defs>
</svg>
