<svg width="1768" height="812" viewBox="0 0 1768 812" fill="none" xmlns="http://www.w3.org/2000/svg">
<path d="M101.78 577.506C115.117 584.318 164.374 599.448 156.789 568.135C154.89 560.337 149.346 553.765 143.033 549.383C135.804 544.349 128.68 542.607 122.36 536.175C114.66 528.427 106.386 521.425 97.6448 515.259C79.6961 502.361 59.8276 491.33 38.8881 489.678C24.2026 488.525 1.84349 495.849 0.115227 514.738C-2.40823 542.236 38.4724 536.113 53.0219 541.958C66.8235 547.483 77.3214 560.544 89.5898 569.864C93.4644 572.802 97.5452 575.36 101.78 577.506Z" fill="url(#paint0_linear)"/>
<path d="M1718.16 649.124C1686.8 646.688 1656.63 649.779 1627.37 663.922C1594.76 679.688 1572.85 717.084 1563.9 750.913C1560.57 763.478 1558.86 776.979 1562.88 789.335C1572.19 817.877 1600.43 813.751 1622.42 802.82C1634.81 796.665 1645.22 787.436 1655.52 778.302C1672.61 763.131 1694.46 752.054 1708.49 733.624C1713.19 727.427 1716.16 720.7 1722.16 715.497C1731.5 707.4 1743.09 701.645 1752.84 693.938C1761.16 687.338 1769.88 677.815 1767.14 667.568C1764.32 657.063 1751.54 653.318 1740.78 651.728C1733.15 650.583 1725.63 649.693 1718.16 649.124Z" fill="url(#paint1_linear)"/>
<path d="M818.103 643.83C782.933 664.162 746.064 677.385 704.087 677.212C657.297 677.015 610.915 645.62 581.602 611.164C570.712 598.367 561.187 583.576 558.979 566.921C553.894 528.443 589.104 517.498 620.808 517.986C638.679 518.253 655.962 523.205 673.051 528.115C701.425 536.276 733.066 537.004 759.684 550.677C768.62 555.282 775.836 561.469 785.73 564.189C801.123 568.425 817.839 568.671 833.499 572.22C846.874 575.277 862.349 581.518 864.872 594.998C867.442 608.826 854.652 620.318 842.998 628.177C834.754 633.766 826.485 639.002 818.103 643.83Z" fill="url(#paint2_linear)"/>
<path d="M569.8 188.685C610.797 78.4317 734.154 7.98242 850.386 17.193C906.435 21.6434 958.634 46.7101 1007.79 73.9635C1051.12 97.9829 1094.03 124.828 1128.44 160.921C1151.93 185.556 1172.14 217.034 1188.32 247.078C1212.54 292.069 1216.39 356.735 1153.18 367.409C1138.35 369.915 1124.47 367.763 1109.72 366.517C1097.78 365.5 1087.53 370.375 1075.64 371.363C1045.72 373.856 1015.37 370.047 986.088 364.053C926.407 351.811 869.113 329.354 808.678 320.62C759.158 313.486 708.73 315.892 660.113 327.707C639.604 332.695 618.399 339.409 597.815 334.734C547.076 323.189 552.466 257.23 560.946 218.792C563.18 208.559 566.139 198.498 569.8 188.685Z" fill="url(#paint3_linear)"/>
<path d="M1069.51 82.6779C1081.57 89.2007 1126.33 104.109 1120.06 75.2845C1118.49 68.1061 1113.56 61.9706 1107.87 57.824C1101.36 53.0604 1094.88 51.3135 1089.23 45.2896C1082.35 38.0318 1074.93 31.4446 1067.06 25.6133C1050.91 13.4207 1032.96 2.89618 1013.83 0.933831C1000.41 -0.437246 979.791 5.785 977.803 23.0371C974.901 48.1532 1012.45 43.4282 1025.64 49.0915C1038.16 54.4452 1047.49 66.6261 1058.51 75.4214C1062 78.1932 1065.68 80.6224 1069.51 82.6779Z" fill="url(#paint4_linear)"/>
<path d="M865.693 95.8266C891.289 103.519 912.899 119.123 937.184 130.005C977.614 148.119 1025.48 142.127 1068.93 150.97C1113.23 159.999 1150.35 181.8 1174.19 220.486C1204.98 270.417 1222.44 334.489 1221.21 393.875C1219.85 459.245 1191.36 509.427 1141.75 550.388C1092.17 591.324 1032.99 619.257 971.502 637.088C965.569 638.814 959.618 640.418 953.618 641.928C818.845 675.768 627.562 672.26 546.102 538.527C545.356 537.305 544.628 536.08 543.895 534.835C535.204 519.842 528.339 503.862 523.447 487.236C505.957 428.333 500.276 359.981 507.488 298.98C512.33 257.915 537.321 225.897 563.664 195.419C600.678 152.601 650.852 123.876 704.337 106.727C743.942 94.0299 789.012 81.8965 830.895 87.9774C842.674 89.7207 854.306 92.3445 865.693 95.8266Z" fill="url(#paint5_linear)"/>
<path d="M1179.26 512.85C1155.6 545.875 1127.47 573.125 1089.15 590.277C1046.44 609.391 991.243 599.915 950.33 580.612C935.131 573.444 920.355 563.897 911.476 549.634C890.976 516.677 918.541 492.187 947.625 479.558C964.016 472.432 981.803 469.817 999.397 467.244C1028.61 462.978 1057.74 450.595 1087.62 452.075C1097.66 452.586 1106.79 455.246 1116.93 453.644C1132.69 451.157 1148.03 444.487 1163.76 441.263C1177.2 438.533 1193.87 437.837 1201.73 449.078C1209.77 460.615 1202.86 476.359 1195.48 488.324C1190.28 496.815 1184.9 504.995 1179.26 512.85Z" fill="url(#paint6_linear)"/>
<defs>
<linearGradient id="paint0_linear" x1="1170.01" y1="530.534" x2="971.623" y2="548.818" gradientUnits="userSpaceOnUse">
<stop stop-color="#FFC2C2"/>
<stop offset="1" stop-color="white"/>
</linearGradient>
<linearGradient id="paint1_linear" x1="1170.01" y1="530.534" x2="971.623" y2="548.818" gradientUnits="userSpaceOnUse">
<stop stop-color="#FFC2C2"/>
<stop offset="1" stop-color="white"/>
</linearGradient>
<linearGradient id="paint2_linear" x1="1170.01" y1="530.534" x2="971.623" y2="548.818" gradientUnits="userSpaceOnUse">
<stop stop-color="#FFC2C2"/>
<stop offset="1" stop-color="white"/>
</linearGradient>
<linearGradient id="paint3_linear" x1="1170.01" y1="530.534" x2="971.623" y2="548.818" gradientUnits="userSpaceOnUse">
<stop stop-color="#FFC2C2"/>
<stop offset="1" stop-color="white"/>
</linearGradient>
<linearGradient id="paint4_linear" x1="1170.01" y1="530.534" x2="971.623" y2="548.818" gradientUnits="userSpaceOnUse">
<stop stop-color="#FFC2C2"/>
<stop offset="1" stop-color="white"/>
</linearGradient>
<linearGradient id="paint5_linear" x1="1170.01" y1="530.534" x2="971.623" y2="548.818" gradientUnits="userSpaceOnUse">
<stop stop-color="#FFC2C2"/>
<stop offset="1" stop-color="white"/>
</linearGradient>
<linearGradient id="paint6_linear" x1="1170.01" y1="530.534" x2="971.623" y2="548.818" gradientUnits="userSpaceOnUse">
<stop stop-color="#FFC2C2"/>
<stop offset="1" stop-color="white"/>
</linearGradient>
</defs>
</svg>
