<svg width="600" height="722" viewBox="0 0 600 722" fill="none" xmlns="http://www.w3.org/2000/svg">
<path d="M251.431 283.302C251.091 283.302 250.747 283.194 250.455 282.968C250.187 282.758 243.859 277.759 239.026 267.562C234.594 258.211 230.658 242.534 237.066 220.921C241.412 206.259 245.768 195.836 249.608 186.634C256.583 169.94 261.623 157.878 262.03 132.306C262.043 131.431 262.688 130.68 263.643 130.741C264.524 130.757 265.224 131.476 265.212 132.357C264.795 158.54 259.389 171.48 252.545 187.863C248.733 196.988 244.416 207.328 240.117 221.828C228.431 261.23 252.17 280.27 252.411 280.454C253.102 280.995 253.226 281.994 252.688 282.688C252.373 283.092 251.906 283.302 251.431 283.302Z" fill="#000C3E"/>
<path d="M381.799 32.0354C381.561 49.3695 367.316 63.2323 349.979 62.9937C332.645 62.755 318.785 48.5104 319.02 31.1732C319.259 13.8391 333.507 -0.0205651 350.841 0.214883C368.175 0.45351 382.038 14.7013 381.799 32.0354Z" fill="#000C3E"/>
<path d="M248.394 272.089C248.394 272.089 258.05 290.858 295.808 296.645C333.563 302.43 362.749 288.125 392.024 297.963C421.299 307.804 462.906 293.091 470.928 280.699C478.952 268.306 474.001 133.282 450.577 111.179C427.153 89.0755 306.791 73.0205 281.433 100.138C256.075 127.259 231.55 257.268 248.394 272.089Z" fill="#000C3E"/>
<path d="M462.938 160.38C462.155 217.508 415.209 263.185 358.078 262.402C300.949 261.62 255.272 214.67 256.055 157.542C256.841 100.414 303.788 54.7371 360.916 55.5198C418.044 56.3057 463.721 103.252 462.938 160.38Z" fill="#000C3E"/>
<path d="M274.966 157.087C274.966 157.087 282.198 282.52 367.201 285.925C452.201 289.329 447.915 112.46 416.801 96.3632C385.687 80.27 257.587 86.4712 274.966 157.087Z" fill="#FFCEB0"/>
<path d="M362.744 181.891C362.744 181.891 379.871 220.145 375.76 222.805C371.65 225.462 359.432 225.296 356.075 222.534C352.718 219.773 356.011 177.726 362.744 181.891Z" fill="#F5A473"/>
<path d="M337.633 195.426C337.522 199.83 333.863 203.31 329.459 203.199C325.056 203.091 321.575 199.432 321.686 195.028C321.794 190.625 325.453 187.144 329.86 187.252C334.264 187.364 337.745 191.023 337.633 195.426Z" fill="#41294A"/>
<path d="M406.01 190.045C405.899 194.449 402.24 197.929 397.836 197.818C393.433 197.71 389.952 194.051 390.063 189.647C390.171 185.244 393.83 181.763 398.237 181.871C402.641 181.982 406.121 185.641 406.01 190.045Z" fill="#41294A"/>
<path d="M340.202 88.5536C340.202 88.5536 310.118 103.995 304.986 131.758C299.851 159.522 304.525 230.192 272.205 227.713C272.205 227.713 206.451 89.1963 340.202 88.5536Z" fill="#41294A"/>
<path d="M356.256 88.7737C353.542 90.8163 387.679 89.9223 407.759 113.12C427.842 136.318 433.881 195.343 436.926 196.367C439.97 197.395 450.257 122.735 428.328 100.899C406.4 79.0662 371.7 77.1508 356.256 88.7737Z" fill="#41294A"/>
<path d="M429.724 201.584C429.724 201.584 437.103 169.964 451.541 180.813C465.98 191.663 453.937 224.807 439.998 228.119C426.062 231.432 422.371 217.966 429.724 201.584Z" fill="#FFCEB0"/>
<path d="M295.746 199.746C295.746 199.746 289.236 167.935 274.505 178.384C259.776 188.833 270.906 222.299 284.747 225.993C298.59 229.683 302.647 216.326 295.746 199.746Z" fill="#FFCEB0"/>
<path d="M394.183 161.911C394.183 161.911 409.195 153.991 418.444 165.369C426.58 175.372 408.011 167.265 401.177 168.56C394.339 169.859 385.309 169.292 394.183 161.911Z" fill="#41294A"/>
<path d="M334.527 164.793C334.527 164.793 319.13 157.65 310.473 169.483C302.859 179.89 320.988 170.845 327.883 171.793C334.775 172.738 343.766 171.71 334.527 164.793Z" fill="#41294A"/>
<path d="M388.732 246.18C388.732 246.18 378.939 231.382 368.344 232.314C357.745 233.249 349.622 246.889 348.197 247.462C348.197 247.462 364.735 255.229 388.732 246.18Z" fill="#41294A"/>
<path d="M329.172 177.667C315.914 177.667 304.978 188.46 304.794 201.721C304.708 208.231 307.158 214.391 311.701 219.062C316.245 223.729 322.331 226.348 328.845 226.437L329.185 226.44C342.443 226.44 353.379 215.651 353.56 202.389C353.745 188.947 342.959 177.858 329.513 177.671L329.172 177.667ZM329.185 229.622L328.8 229.619C321.437 229.52 314.555 226.555 309.42 221.279C304.285 216.001 301.513 209.039 301.612 201.677C301.819 186.684 314.183 174.486 329.172 174.486L329.557 174.489C344.756 174.699 356.949 187.235 356.742 202.431C356.538 217.423 344.174 229.622 329.185 229.622Z" fill="#FFFCF6"/>
<path d="M398.038 172.156C384.776 172.156 373.841 182.948 373.659 196.209C373.475 209.649 384.264 220.741 397.707 220.925L398.047 220.928C411.309 220.928 422.244 210.139 422.426 196.878C422.515 190.365 420.062 184.205 415.521 179.534C410.978 174.87 404.891 172.248 398.378 172.159L398.038 172.156ZM398.047 224.11L397.665 224.107C382.463 223.897 370.271 211.361 370.478 196.165C370.684 181.173 383.045 168.974 398.038 168.974L398.423 168.977C405.785 169.076 412.667 172.041 417.8 177.316C422.938 182.595 425.709 189.556 425.607 196.919C425.401 211.911 413.036 224.11 398.047 224.11Z" fill="#FFFCF6"/>
<path d="M303.886 197.727C303.705 197.727 303.517 197.695 303.339 197.631L293.135 193.883C292.311 193.578 291.888 192.665 292.19 191.838C292.493 191.017 293.412 190.6 294.233 190.896L304.434 194.641C305.261 194.946 305.681 195.859 305.379 196.687C305.143 197.329 304.535 197.727 303.886 197.727Z" fill="#FFFCF6"/>
<path d="M422.873 190.496C422.195 190.496 421.565 190.061 421.355 189.38C421.091 188.543 421.559 187.649 422.399 187.385L436.345 183.032C437.178 182.765 438.075 183.239 438.336 184.076C438.6 184.916 438.133 185.807 437.293 186.071L423.347 190.426C423.191 190.474 423.029 190.496 422.873 190.496Z" fill="#FFFCF6"/>
<path d="M355.759 117.942C355.759 117.942 355.787 149.673 374.69 155.404C393.589 161.137 442.21 158.608 441.716 150.854C437.265 80.846 404.356 84.3682 376.873 75.4084C328.673 59.7002 289.251 138.4 295.153 157.001C301.055 175.598 341.737 158.232 350.445 155.617C359.15 152.998 354.327 131.436 355.759 117.942Z" fill="#000C3E"/>
<g opacity="0.210007">
<g opacity="0.210007">
<path opacity="0.210007" d="M307.015 225.112C307.015 225.112 349.895 200.37 368.715 203.829C387.535 207.291 420.564 207.832 422.06 214.583C423.558 221.332 380.185 218.29 366.844 219.588C353.503 220.886 302.287 236.244 307.015 225.112Z" fill="#DB5C5D"/>
</g>
</g>
<path d="M331.012 208.556C330.386 208.556 329.791 208.183 329.539 207.563C329.208 206.752 329.6 205.823 330.414 205.492C334.725 203.735 335.524 202.351 335.53 202.339C335.814 201.505 336.685 201.117 337.525 201.413C338.356 201.696 338.773 202.663 338.489 203.497C338.289 204.082 337.204 206.163 331.611 208.438C331.413 208.518 331.213 208.556 331.012 208.556Z" fill="#DB5C5D"/>
<path d="M396.524 205.188C395.241 205.188 393.078 204.8 389.68 203.142C388.887 202.76 388.56 201.809 388.945 201.016C389.326 200.227 390.284 199.903 391.07 200.285C395.26 202.324 396.819 201.984 396.839 201.984C397.65 201.643 398.515 202.041 398.859 202.849C399.203 203.657 398.764 204.612 397.952 204.959C397.742 205.048 397.29 205.188 396.524 205.188Z" fill="#DB5C5D"/>
<path d="M355.127 202.541C354.323 202.541 353.629 201.933 353.546 201.112C353.457 200.237 354.093 199.454 354.968 199.368L372.042 197.625C372.897 197.517 373.696 198.169 373.785 199.044C373.874 199.919 373.238 200.702 372.363 200.788L355.29 202.531C355.236 202.537 355.182 202.541 355.127 202.541Z" fill="#FFFCF6"/>
<path d="M331.487 62.5654C331.255 62.5654 331.016 62.5145 330.793 62.4032C321.767 58.0156 316.307 51.7571 314.557 43.7996C310.675 26.1314 326.46 6.58283 327.134 5.75876C327.694 5.07787 328.693 4.97924 329.371 5.53604C330.052 6.09285 330.154 7.09191 329.597 7.7728C329.441 7.9637 314.112 26.9682 317.666 43.125C319.196 50.0803 324.08 55.6038 332.184 59.546C332.973 59.9278 333.304 60.8823 332.919 61.6714C332.645 62.2345 332.079 62.5654 331.487 62.5654Z" fill="#000C3E"/>
<path d="M367.817 67.2939C367.374 67.2939 366.935 67.1094 366.62 66.7531C366.041 66.0912 366.105 65.089 366.767 64.5067C366.951 64.3445 385.195 48.1208 384.343 31.5981C383.977 24.4869 380.066 18.2348 372.72 13.0136C372.004 12.5077 371.835 11.515 372.344 10.7959C372.853 10.0832 373.846 9.91455 374.562 10.4236C382.742 16.2335 387.104 23.3065 387.521 31.4453C388.444 49.5081 369.665 66.1962 368.863 66.8994C368.561 67.1635 368.189 67.2939 367.817 67.2939Z" fill="#000C3E"/>
<path d="M462.447 276.181C461.986 276.181 461.527 275.983 461.212 275.592C460.659 274.914 460.761 273.912 461.442 273.355C461.652 273.184 482.578 255.706 476.517 228.057C474.181 217.398 470.086 205.67 465.75 193.255C458.231 171.724 450.455 149.459 449.822 127.874C449.796 126.992 450.49 126.264 451.368 126.235C452.192 126.264 452.978 126.9 453.004 127.778C453.624 148.873 461.314 170.904 468.753 192.205C473.122 204.716 477.248 216.53 479.625 227.373C486.113 256.979 463.678 275.64 463.449 275.824C463.153 276.063 462.8 276.181 462.447 276.181Z" fill="#000C3E"/>
<path d="M468.098 162.551C468.047 162.551 467.993 162.548 467.939 162.545C467.067 162.459 466.427 161.679 466.513 160.804C469.262 132.967 463.405 110.374 449.109 93.6412C426.089 66.7078 388.691 64.2356 388.319 64.2134C387.441 64.1625 386.769 63.4116 386.823 62.5302C386.871 61.6552 387.625 60.9616 388.5 61.038C388.892 61.0603 427.639 63.6184 451.527 91.5731C466.408 108.99 472.517 132.388 469.679 161.116C469.599 161.94 468.906 162.551 468.098 162.551Z" fill="#000C3E"/>
<path d="M354.154 249.321C354.154 249.321 370.008 238.197 384.167 247.733C384.167 247.733 367.635 253.928 354.154 249.321Z" fill="#DB5C5D"/>
<path d="M364.644 260.741C363.079 260.741 361.733 260.725 360.902 260.712C360.024 260.699 359.324 259.977 359.337 259.096C359.35 258.217 359.951 257.505 360.953 257.53C366.961 257.61 374.139 257.463 375.255 257.04C376.073 256.728 376.996 257.136 377.311 257.953C377.626 258.774 377.225 259.687 376.407 260.006C374.816 260.623 368.911 260.741 364.644 260.741Z" fill="#DB5C5D"/>
<path d="M287.48 217.203C287.337 217.203 287.193 217.184 287.05 217.143C286.204 216.907 285.711 216.032 285.946 215.183C290.299 199.583 278.743 189.538 278.625 189.436C277.957 188.87 277.874 187.865 278.444 187.193C279.01 186.525 280.015 186.442 280.687 187.015C281.228 187.473 293.907 198.498 289.01 216.042C288.813 216.742 288.177 217.203 287.48 217.203Z" fill="#DB5C5D"/>
<path d="M435.92 221.003C435.885 221.003 435.853 221.003 435.815 221C434.94 220.943 434.275 220.185 434.329 219.31C435.519 200.847 444.367 190.977 444.746 190.567C445.338 189.917 446.343 189.873 446.989 190.465C447.638 191.057 447.682 192.062 447.094 192.711C447.008 192.806 438.618 202.234 437.507 219.514C437.45 220.357 436.75 221.003 435.92 221.003Z" fill="#DB5C5D"/>
<path d="M403.972 272.941C403.972 272.941 409.031 329.534 402.318 338.485C395.604 347.438 353.083 340.721 341.893 338.485C330.703 336.248 330.681 242.648 332.94 248.97C351.623 301.185 402.683 254.977 403.972 272.941Z" fill="#FFCEB0"/>
<path d="M336.986 278.539C336.986 278.539 367.152 293.038 401.445 275.487C401.445 275.487 404.111 296.57 401.445 301.431C398.782 306.293 344.46 309.767 333.766 285.806C333.766 285.806 333.9 277.498 336.986 278.539Z" fill="#F5A473"/>
<path d="M172.249 721.876H562.622C562.622 721.876 582.562 382.474 533.662 345.566C484.758 308.655 269.486 327.093 218.804 358.621C168.122 390.149 172.249 721.876 172.249 721.876Z" fill="#FB4C47"/>
<path d="M367.153 331.778C367.153 331.778 352.106 462.241 358.673 480.399C365.237 498.558 356.828 579.065 354.155 589.53C351.479 599.994 270.374 604.439 249.444 596.068C228.515 587.697 254.777 362.045 266.492 320.298C278.21 278.547 365.864 303.145 367.153 331.778Z" fill="#05BA6E"/>
<path d="M128.969 171.932C128.969 171.932 161.598 234.425 184.465 235.004C207.335 235.583 284.454 141.668 312.889 140.7C341.327 139.736 365.747 142.495 365.858 135.718C365.97 128.937 326.306 121.537 326.306 121.537C326.306 121.537 383.667 125.189 371.802 118.915C359.94 112.641 331.515 106.999 331.515 106.999C331.515 106.999 372.741 108.663 373.04 104.254C373.339 99.8437 330.118 93.3498 330.118 93.3498C330.118 93.3498 382.712 91.6698 373.094 84.4345C363.472 77.1993 345.365 80.3396 296.388 87.8199C247.409 95.3002 136.602 160.688 128.969 171.932Z" fill="#FFCEB0"/>
<path d="M186.214 168.938C186.214 168.938 238.41 200.03 215.683 235.265C191.483 272.784 192.838 261.638 188.654 276.818C184.467 291.998 253.44 321.563 256.578 334.557C259.715 347.548 227.201 507.332 196.745 500.774C170.235 495.069 22.9143 411.466 1.74304 327.92C-14.6683 263.15 119.101 104.722 186.214 168.938Z" fill="#FB4C47"/>
<path d="M322.845 533.398C322.845 533.398 265.011 660.801 286.274 677.862C307.538 694.919 324.671 683.805 343.475 694.878C362.283 705.95 380.323 700.414 395.43 690.78C410.537 681.142 371.22 554.391 354.958 542.323C338.696 530.252 325.775 526.777 322.845 533.398Z" fill="white"/>
<path d="M515.001 336.5C515.001 336.5 546.099 340.296 570.51 385C588.823 418.541 624.304 614.529 570.51 642.454C516.716 670.377 466.26 655.771 446.736 636.953C427.208 618.135 461.95 521.154 485.108 513.915C508.268 506.679 515.001 336.5 515.001 336.5Z" fill="#FB4C47"/>
<path d="M525.07 333.496C525.07 333.496 526.525 324.434 481.742 305.055C446.004 289.588 415.393 315.691 360.88 318.501C306.368 321.313 311.287 299.706 272.727 309.748C213.222 325.239 260.598 364.244 279.771 368.622C298.945 373 363.181 480.985 525.07 333.496Z" fill="#05BA6E"/>
<path d="M368.779 224.6C368.779 224.6 368.614 228.291 370.733 228.625C372.852 228.959 376.769 227.776 375.76 222.803C375.76 222.803 370.447 224.511 368.779 224.6Z" fill="white"/>
<path d="M589.514 530.318C589.364 530.318 589.212 530.309 589.059 530.287C587.589 530.077 586.501 528.893 586.345 527.483C583.695 524.419 565.899 518.002 554.028 513.719C530.509 505.234 519.961 501.037 517.693 496.446C515.768 492.554 516.63 486.942 517.721 479.837C519.449 468.593 521.603 454.593 514.463 441.109C502.134 417.822 503.308 383.281 503.365 381.824C503.435 380.067 504.953 378.661 506.665 378.766C508.421 378.833 509.789 380.312 509.726 382.065C509.71 382.409 508.564 416.371 520.089 438.131C528.212 453.479 525.784 469.27 524.012 480.801C523.162 486.321 522.363 491.536 523.398 493.627C525.326 496.601 543.897 503.302 556.185 507.734C583.879 517.725 593.494 521.744 592.658 527.588C592.432 529.176 591.07 530.318 589.514 530.318Z" fill="#B31B1F"/>
<path d="M506.5 504.159C506.223 504.159 505.943 504.124 505.66 504.047C495.148 501.18 478.816 498.196 478.653 498.164C476.923 497.852 475.777 496.195 476.092 494.467C476.407 492.736 478.058 491.572 479.793 491.906C480.47 492.027 496.554 494.967 507.334 497.906C509.029 498.371 510.029 500.118 509.567 501.814C509.182 503.23 507.9 504.159 506.5 504.159Z" fill="#B31B1F"/>
<path d="M563.653 661.54C563.602 661.54 563.555 661.54 563.507 661.536C504.613 658.867 445.935 633.779 442.763 609.916C441.767 602.417 441.048 598.665 440.603 596.81C439.413 596.219 438.691 594.952 438.904 593.568C439.308 590.947 441.083 590.017 442.493 590.017H442.528C445.732 590.052 446.794 591.93 449.073 609.079C451.535 627.603 504.957 652.513 563.793 655.179C565.549 655.259 566.908 656.745 566.829 658.501C566.752 660.21 565.343 661.54 563.653 661.54Z" fill="#B31B1F"/>
<path d="M458.077 605.226C457.845 605.226 457.609 605.2 457.37 605.149C455.659 604.761 454.583 603.056 454.971 601.341C455.108 600.727 469.025 539.383 482.032 495.256C482.528 493.569 484.31 492.602 485.984 493.105C487.67 493.601 488.634 495.37 488.135 497.056C475.185 540.987 461.316 602.133 461.179 602.747C460.842 604.224 459.531 605.226 458.077 605.226Z" fill="#B31B1F"/>
<path d="M182 471.994C181.844 471.994 181.682 471.982 181.523 471.959C179.786 471.699 178.589 470.076 178.85 468.342C179.178 466.146 187.034 414.3 197.813 390.039C208.294 366.463 213.658 342.558 213.713 342.32C214.088 340.605 215.784 339.532 217.508 339.902C219.223 340.283 220.305 341.986 219.923 343.701C219.704 344.7 214.365 368.467 203.63 392.626C193.2 416.098 185.22 468.755 185.141 469.284C184.905 470.865 183.547 471.994 182 471.994Z" fill="#B31B1F"/>
<path d="M133.497 290.977C125.027 290.977 115.536 290.462 105.087 289.132C103.344 288.909 102.109 287.318 102.332 285.575C102.552 283.831 104.184 282.619 105.889 282.819C137.707 286.873 160.31 283.141 171.961 280.598C166.158 278.743 158.028 276.936 149.915 277.378C131.658 278.237 104.944 261.928 103.815 261.228C102.319 260.305 101.858 258.345 102.781 256.85C103.703 255.354 105.666 254.887 107.159 255.816C107.42 255.975 133.351 271.817 149.587 271.021C165.054 270.207 183.371 277.095 185.035 280.051C185.63 281.104 185.582 282.472 184.904 283.475C184.274 284.4 182.97 284.957 181.824 284.887C181.322 284.945 179.833 285.301 178.385 285.645C171.427 287.312 156.091 290.974 133.497 290.977Z" fill="#B31B1F"/>
<path d="M211.708 222.594C210.524 222.594 209.389 221.932 208.841 220.799C208.762 220.637 200.817 204.499 187.288 198.104C171.93 190.84 154.561 165.523 153.829 164.451C152.84 162.997 153.215 161.015 154.666 160.028C156.123 159.042 158.099 159.421 159.085 160.865C159.257 161.113 176.213 185.823 190.012 192.348C205.602 199.727 214.212 217.287 214.572 218.028C215.335 219.613 214.67 221.509 213.089 222.273C212.644 222.492 212.173 222.594 211.708 222.594Z" fill="#B31B1F"/>
<path d="M359.497 407.501C359.379 407.501 359.258 407.488 359.141 407.46C358.285 407.265 357.747 406.41 357.944 405.557C358.021 405.22 365.609 372.047 367.83 355.196C371.288 328.925 359.522 319.761 359.405 319.672C358.701 319.144 358.555 318.151 359.077 317.448C359.599 316.742 360.585 316.592 361.291 317.111C361.842 317.515 374.709 327.318 370.983 355.61C368.746 372.613 361.123 405.932 361.046 406.263C360.878 407.005 360.222 407.501 359.497 407.501Z" fill="#08824F"/>
<path d="M265.663 359.657L262.503 359.291C262.503 359.291 264.972 337.811 266.261 327.251C267.562 316.599 270.601 309.325 270.731 309.02C271.071 308.205 272.007 307.836 272.815 308.17C273.623 308.514 274.002 309.449 273.661 310.257C273.63 310.327 270.661 317.454 269.42 327.639C268.132 338.19 265.663 359.654 265.663 359.657Z" fill="#08824F"/>
<path d="M356.008 712.386C337.862 712.386 327.885 711.787 314.076 710.96C296.312 709.894 271.988 708.437 215.143 707.553C213.387 707.527 211.984 706.083 212.012 704.323C212.041 702.567 213.587 701.103 215.242 701.189C272.226 702.074 296.634 703.54 314.454 704.609C328.155 705.427 338.05 706.022 356.008 706.022C378.487 706.022 398.653 703.559 418.157 701.18C435.278 699.086 451.447 697.113 468.778 696.728C505.747 695.914 533.374 696.725 533.647 696.728C535.404 696.786 536.784 698.252 536.73 700.005C536.676 701.762 535.194 703.063 533.456 703.092C533.183 703.082 505.712 702.268 468.921 703.092C451.905 703.467 435.885 705.424 418.927 707.495C399.235 709.901 378.875 712.386 356.008 712.386Z" fill="#B31B1F"/>
<path d="M500.143 669.932C498.562 669.932 496.977 669.223 495.596 667.136C491.298 660.642 490 660.107 481.689 661.386C474.171 662.56 471.202 657.231 469.236 653.709C468.58 652.531 467.957 651.421 467.413 650.991C465.949 649.837 462.293 651.224 460.747 652.076L459.204 649.296C459.878 648.92 465.873 645.723 469.385 648.494C470.426 649.318 471.161 650.635 472.013 652.156C473.913 655.551 475.879 659.048 481.202 658.243C490.716 656.773 493.258 657.845 498.25 665.379C499.574 667.384 500.719 667.11 504.248 665.052C506.927 663.48 510.99 661.109 514.019 665.341L511.435 667.193C510.255 665.554 509.186 665.85 505.851 667.797C504.257 668.73 502.202 669.932 500.143 669.932Z" fill="white"/>
<path d="M463.124 520.085C463.124 520.085 387.125 492.604 354.153 506.661C321.18 520.715 294.008 556.948 299.042 559.344C304.075 561.743 331.012 540.852 331.012 540.852C331.012 540.852 303.544 568.609 308.638 571.387C313.732 574.164 340.201 559.344 340.201 559.344C340.201 559.344 321.724 579.096 329.66 580.607C337.595 582.119 354.608 565.844 372.349 565.233C390.094 564.619 412.455 578.641 434.638 582.59C456.818 586.535 463.124 520.085 463.124 520.085Z" fill="#FFCEB0"/>
<path d="M577.818 505.84C577.621 505.84 577.423 505.821 577.223 505.783C577 505.744 554.62 501.513 527.865 496.072C526.143 495.722 525.03 494.042 525.38 492.321C525.726 490.599 527.403 489.486 529.131 489.839C555.842 495.267 578.184 499.489 578.406 499.534C580.134 499.858 581.267 501.522 580.939 503.25C580.653 504.777 579.316 505.84 577.818 505.84Z" fill="#B31B1F"/>
<path fill-rule="evenodd" clip-rule="evenodd" d="M365.41 5.76935C364.578 5.76935 363.676 5.86594 362.697 6.05912C360.312 6.53785 358.766 7.6969 357.838 9.70844C353.702 18.6617 362.424 39.9865 368.656 52.5848C372.507 38.6091 377.122 15.2475 370.6 7.88587C369.345 6.47066 367.636 5.76935 365.41 5.76935ZM368.839 63.0486C368.939 63.0677 369.04 63.0817 369.142 63.0902C369.474 63.2178 369.828 63.2837 370.185 63.2837C370.517 63.2837 370.849 63.2291 371.172 63.1115C375.422 61.5619 412.843 47.5273 417.505 31.3552C418.626 27.4665 417.836 23.6324 415.224 20.2729C410.781 14.5532 405.981 13.8729 402.735 14.3055C393.524 15.5339 384.457 27.4343 377.808 38.7397C380.16 25.8625 381.065 10.992 374.922 4.05598C372.755 1.6077 368.673 -1.01696 361.567 0.398254C357.397 1.22975 354.294 3.61503 352.597 7.28955C346.32 20.8866 360.761 50.1689 365.575 59.2436C359.505 60.4151 353.402 60.6795 347.563 60.2827C334.983 59.4277 323.834 55.516 317.177 51.2365L314.797 54.9377C322.164 59.6731 334.052 63.7746 347.265 64.6725C354.194 65.1435 361.543 64.7367 368.839 63.0486ZM404.327 19.9705C404.054 19.9705 403.777 19.9873 403.5 20.0293C393.744 21.3269 381.956 42.0176 375.724 55.1073C388.68 49.6522 409.228 39.2334 411.957 29.7594C412.57 27.6261 412.159 25.7406 410.668 23.8172C408.661 21.2346 406.582 19.9705 404.327 19.9705Z" fill="#FFD310"/>
</svg>
